<svg width="200" height="31" fill="none" xmlns="http://www.w3.org/2000/svg"><g clip-path="url(#clip0_88_8024)" fill="#fff"><path d="M108.129 5.774v6.646c1.087-1.45 2.658-2.175 4.713-2.175.966 0 1.812.121 2.537.484.846.241 1.571.725 2.175 1.329.726.604 1.209 1.33 1.571 2.175.363.846.484 1.934.484 3.142a9.85 9.85 0 01-.725 3.746c-.484 1.088-1.209 2.055-2.296 2.78-1.088.725-2.296 1.087-3.867 1.087-2.176 0-3.747-.725-4.713-2.054v1.692h-4.23V5.774h4.351zM92.056 9.883c8.218 0 7.493 8.821 7.493 8.821H88.43c.483 1.692 1.933 2.9 3.987 2.9 2.538 0 3.868-1.45 3.868-1.45l2.416 2.417c-1.208 1.209-2.9 2.296-6.284 2.296-5.196 0-7.975-3.504-7.975-7.13 0-3.625 1.933-7.854 7.613-7.854zm101.631-.121c3.505 0 5.801 1.33 5.801 1.33l-1.571 3.141c-4.713-2.417-6.767-.725-6.767.12 0 .847.846.968 4.108 1.572 3.263.604 4.713 1.933 4.713 4.109 0 2.175-1.933 4.592-6.525 4.592-4.592 0-6.647-1.45-6.647-1.45l1.45-3.021c3.626 2.296 7.735 1.57 7.735.241 0-.967-1.33-1.208-2.78-1.45l-.604-.12c-.242 0-.604-.122-.846-.122-1.813-.241-4.592-1.329-4.592-4.108-.121-2.9 3.021-4.834 6.525-4.834zm-20.543-5.076v11.36l6.163-5.8h4.954l-6.042 5.8 6.647 8.7h-4.955l-4.592-5.92-2.175 2.054v3.867h-4.109V4.687h4.109zm-14.623 5.076c2.901 0 5.438 1.45 6.888 3.625l-3.504 2.054c-.604-1.208-1.934-2.054-3.384-2.054-2.175 0-3.867 1.692-3.867 3.867s1.692 3.867 3.867 3.867c1.45 0 2.659-.725 3.263-1.933l3.505 1.933c-1.451 2.055-3.867 3.505-6.768 3.505-4.471 0-7.976-3.384-7.976-7.493-.12-4.108 3.505-7.371 7.976-7.371zm-18.973 0c4.472 0 7.976 3.383 7.976 7.492s-3.625 7.493-7.976 7.493c-4.471 0-7.975-3.384-7.975-7.493-.121-4.23 3.504-7.492 7.975-7.492zm-72.628.362v14.381h-4.47v-14.38h4.471zm-8.338-4.35v3.625h-9.91v4.834h8.701v3.505h-8.7v6.767H44.2V5.774h14.38zm17.885 6.163s1.57-2.417 4.834-2.054v3.988s-3.505-.846-4.834 2.779v7.976h-4.23V10.124h3.988l.242 1.813zm50.755-7.25v19.818h-4.471V4.686h4.471zm-15.589 8.7c-2.417 0-3.625 1.45-3.625 4.471 0 1.088.362 2.055.966 2.9.605.726 1.571 1.088 2.901 1.088.846 0 1.571-.241 2.054-.604.484-.483.846-.967 1.088-1.57.241-.605.362-1.33.362-1.934 0-1.209-.241-2.296-.846-3.022-.725-.966-1.691-1.329-2.9-1.329zm27.915-.12c-2.175 0-3.867 1.691-3.867 3.866 0 2.176 1.692 3.867 3.867 3.867 2.176 0 3.868-1.691 3.868-3.867-.121-2.054-1.813-3.867-3.868-3.867zm-47.492-.363c-2.175 0-3.384 1.33-3.746 3.02h7.25c0-.362-.725-3.02-3.504-3.02zM64.745 3.357c1.45 0 2.658 1.088 2.658 2.417 0 1.33-1.208 2.417-2.658 2.417s-2.659-1.088-2.659-2.417c0-1.33 1.209-2.417 2.659-2.417zM29.366 0c.725 0 1.208.483 1.208 1.208v27.795c0 .725-.483 1.209-1.208 1.209H1.208C.483 30.212 0 29.727 0 29.003V1.208C0 .483.483 0 1.208 0h28.158zM15.347 8.338L6.888 21.752h17.04l-8.58-13.414z"/></g><defs><clipPath id="clip0_88_8024"><path fill="#fff" d="M0 0h200v30.212H0z"/></clipPath></defs></svg>