<svg width="205" height="45" fill="none" xmlns="http://www.w3.org/2000/svg"><g clip-path="url(#clip0_88_8032)" fill="#fff"><path d="M63.829 41.886V13.669h4.215l.369 2.288h.221c1.18-1.55 3.247-2.657 6.06-2.657 5.174 0 9.38 4.215 9.38 10.488s-4.14 10.488-9.388 10.488c-2.805 0-4.732-1.18-5.765-2.51H68.7v10.046h-4.88v.074h.009zm15.367-18.098c0-3.69-2.362-5.986-5.248-5.986-2.887 0-5.248 2.288-5.248 5.986s2.361 5.986 5.248 5.986c2.886 0 5.248-2.288 5.248-5.986zm7.314 0c0-6.134 4.436-10.488 10.266-10.488 5.912 0 10.267 4.436 10.267 10.488 0 6.134-4.437 10.488-10.267 10.488-5.912 0-10.266-4.428-10.266-10.488zm15.654 0c0-3.616-2.362-5.986-5.396-5.986-2.952 0-5.396 2.362-5.396 5.986 0 3.625 2.436 5.986 5.396 5.986s5.396-2.361 5.396-5.986zm8.421 10.119V5.912h4.879v27.995h-4.879zm23.05-20.237h5.174l-8.79 24.6c-.886 2.435-2.066 3.615-5.248 3.615h-4.723v-4.51h3.985c.738 0 1.107-.368 1.328-.959l.443-1.328-8.274-21.427h5.175l5.248 14.039h.811l4.732-14.039h.139v.008zm6.134 21.278h4.953c.221 1.329 1.549 3.1 4.657 3.1 2.952 0 4.879-1.845 4.879-4.658v-2.804h-.221c-1.107 1.18-3.1 2.214-5.617 2.214-5.174 0-9.233-3.985-9.233-9.75 0-5.765 3.985-9.75 9.233-9.75 2.657 0 4.657 1.107 5.912 2.583h.221l.369-2.214h4.215V33.39c0 5.396-3.616 8.938-9.75 8.938-6.888 0-9.471-4.502-9.618-7.38zm14.407-11.898c0-3.173-2.214-5.396-5.1-5.396-2.805 0-5.027 2.215-5.027 5.396 0 3.182 2.214 5.396 5.027 5.396 2.812 0 5.1-2.223 5.1-5.396zm8.274.738c0-6.134 4.436-10.488 10.266-10.488 5.913 0 10.267 4.436 10.267 10.488 0 6.134-4.436 10.488-10.267 10.488-5.912 0-10.266-4.428-10.266-10.488zm15.662 0c0-3.616-2.435-5.986-5.396-5.986-2.952 0-5.395 2.362-5.395 5.986 0 3.625 2.435 5.986 5.395 5.986 2.952 0 5.396-2.361 5.396-5.986zm8.274 10.119V13.669h4.215l.369 1.92h.221c.812-.886 2.804-2.289 5.838-2.289 4.658 0 7.979 3.321 7.979 8.495v12.186h-4.879V22.46c0-2.583-1.845-4.51-4.362-4.51a4.476 4.476 0 00-4.51 4.51v11.52h-4.871v-.073zM37.531 31.546L49.495 24.6a1.987 1.987 0 001.033-1.771V8.939c0-.739-.369-1.403-1.033-1.772L37.531.222a2.067 2.067 0 00-2.066 0L23.493 7.167a1.987 1.987 0 00-1.033 1.771v24.748l-8.422 4.879-8.421-4.88V24.01l8.421-4.88 5.544 3.174v-6.502l-4.51-2.583c-.296-.148-.665-.296-1.034-.296s-.738.074-1.033.296L1.033 20.172A1.987 1.987 0 000 21.943v13.891c0 .738.369 1.402 1.033 1.771l11.964 6.946a2.067 2.067 0 002.066 0l11.964-6.946a1.987 1.987 0 001.033-1.77V11.086l.148-.074 8.282-4.805 8.421 4.879v9.676l-8.421 4.87-5.543-3.173v6.503l4.51 2.583a2.082 2.082 0 002.074 0z"/></g><defs><clipPath id="clip0_88_8032"><path fill="#fff" d="M0 0h205v44.772H0z"/></clipPath></defs></svg>