<svg width="32" height="32" fill="none" xmlns="http://www.w3.org/2000/svg"><g filter="url(#filter0_b_177_1861)"><rect width="32" height="32" rx="16" fill="url(#paint0_linear_177_1861)"/><rect x=".41" y=".41" width="31.179" height="31.179" rx="15.589" stroke="url(#paint1_linear_177_1861)" stroke-width=".821"/><path fill-rule="evenodd" clip-rule="evenodd" d="M11.406 9.333h9.188A1.41 1.41 0 0122 10.747v12.3l-1.474-1.303-.83-.768-.878-.814.364 1.269h-7.776A1.409 1.409 0 0110 20.016v-9.269a1.409 1.409 0 011.406-1.414zm6.089 8.4c.206.262.452.557.452.557a2.506 2.506 0 002.099-1.044 9.182 9.182 0 00-.986-3.998 3.392 3.392 0 00-1.929-.72l-.096.11a4.563 4.563 0 011.708.871 5.592 5.592 0 00-3.45-.645.67.67 0 00-.116.014 5.147 5.147 0 00-1.558.432c-.254.117-.405.199-.405.199a4.626 4.626 0 011.804-.898l-.069-.083a3.392 3.392 0 00-1.928.72 9.182 9.182 0 00-.986 3.998 2.486 2.486 0 002.091 1.042s.254-.308.46-.569a2.133 2.133 0 01-1.2-.809c.246.163.51.3.785.406.326.13.664.228 1.008.295a4.803 4.803 0 001.776.007c.342-.06.675-.159.994-.295.277-.104.542-.24.789-.404-.305.41-.746.698-1.243.814zm-3.237-2.404a.764.764 0 01.499-.243.726.726 0 01.701.761.727.727 0 01-.701.761.764.764 0 01-.5-1.279zm2.562-.146a.764.764 0 01.44-.097h.002a.727.727 0 01.7.761.764.764 0 11-1.142-.664z" fill="#fff"/></g><defs><linearGradient id="paint0_linear_177_1861" x1="0" y1="0" x2="32.011" y2="31.989" gradientUnits="userSpaceOnUse"><stop stop-color="#fff" stop-opacity=".15"/><stop offset="1" stop-color="#fff" stop-opacity=".02"/></linearGradient><linearGradient id="paint1_linear_177_1861" x1="31.111" y1="32" x2="-1.391" y2="30.518" gradientUnits="userSpaceOnUse"><stop stop-color="#fff" stop-opacity=".2"/><stop offset="1" stop-color="#fff" stop-opacity=".1"/><stop offset="1" stop-color="#fff" stop-opacity=".05"/></linearGradient><filter id="filter0_b_177_1861" x="-8.21" y="-8.21" width="48.42" height="48.42" filterUnits="userSpaceOnUse" color-interpolation-filters="sRGB"><feFlood flood-opacity="0" result="BackgroundImageFix"/><feGaussianBlur in="BackgroundImageFix" stdDeviation="4.105"/><feComposite in2="SourceAlpha" operator="in" result="effect1_backgroundBlur_177_1861"/><feBlend in="SourceGraphic" in2="effect1_backgroundBlur_177_1861" result="shape"/></filter></defs></svg>