<svg width="32" height="32" fill="none" xmlns="http://www.w3.org/2000/svg"><g filter="url(#filter0_b_177_1869)"><rect width="32" height="32" rx="16" fill="url(#paint0_linear_177_1869)"/><rect x=".41" y=".41" width="31.179" height="31.179" rx="15.589" stroke="url(#paint1_linear_177_1869)" stroke-width=".821"/><path d="M11.994 10.668c2.94 0 5.325 2.401 5.325 5.363 0 2.96-2.384 5.361-5.325 5.361-2.941 0-5.326-2.4-5.326-5.361 0-2.962 2.384-5.362 5.326-5.362zm8.504.315c1.47 0 2.663 2.26 2.663 5.048 0 2.787-1.192 5.048-2.663 5.048-1.47 0-2.662-2.261-2.662-5.048 0-2.788 1.192-5.048 2.662-5.048zm4.116.525c.517 0 .937 2.025.937 4.523 0 2.497-.42 4.522-.937 4.522-.517 0-.936-2.025-.936-4.522 0-2.498.42-4.523.936-4.523z" fill="#fff"/></g><defs><linearGradient id="paint0_linear_177_1869" x1="0" y1="0" x2="32.011" y2="31.989" gradientUnits="userSpaceOnUse"><stop stop-color="#fff" stop-opacity=".15"/><stop offset="1" stop-color="#fff" stop-opacity=".02"/></linearGradient><linearGradient id="paint1_linear_177_1869" x1="31.111" y1="32" x2="-1.391" y2="30.518" gradientUnits="userSpaceOnUse"><stop stop-color="#fff" stop-opacity=".2"/><stop offset="1" stop-color="#fff" stop-opacity=".1"/><stop offset="1" stop-color="#fff" stop-opacity=".05"/></linearGradient><filter id="filter0_b_177_1869" x="-8.21" y="-8.21" width="48.42" height="48.42" filterUnits="userSpaceOnUse" color-interpolation-filters="sRGB"><feFlood flood-opacity="0" result="BackgroundImageFix"/><feGaussianBlur in="BackgroundImageFix" stdDeviation="4.105"/><feComposite in2="SourceAlpha" operator="in" result="effect1_backgroundBlur_177_1869"/><feBlend in="SourceGraphic" in2="effect1_backgroundBlur_177_1869" result="shape"/></filter></defs></svg>