<svg width="32" height="32" fill="none" xmlns="http://www.w3.org/2000/svg"><g filter="url(#filter0_b_177_1865)"><rect width="32" height="32" rx="16" fill="url(#paint0_linear_177_1865)"/><rect x=".41" y=".41" width="31.179" height="31.179" rx="15.589" stroke="url(#paint1_linear_177_1865)" stroke-width=".821"/><path d="M23.243 16.002c-.03-.893-.737-1.59-1.58-1.56-.374.013-.73.176-1 .449a7.128 7.128 0 00-4.02-1.365l.677-3.46 2.235.499c.062.61.576 1.05 1.15.984.573-.066.989-.612.926-1.221-.062-.61-.576-1.051-1.15-.985a1.03 1.03 0 00-.789.544l-2.559-.544a.325.325 0 00-.387.262v.006l-.77 3.849a7.18 7.18 0 00-4.073 1.365 1.46 1.46 0 00-2.154.072 1.69 1.69 0 00.067 2.288c.12.119.257.22.41.292-.01.163-.01.326 0 .488 0 2.485 2.726 4.506 6.087 4.506 3.361 0 6.087-2.019 6.087-4.506.01-.162.01-.325 0-.488.524-.278.854-.852.843-1.475zm-10.442 1.111c0-.612.47-1.11 1.046-1.11.576 0 1.046.498 1.046 1.11 0 .612-.47 1.111-1.046 1.111-.579-.005-1.046-.499-1.046-1.11zm6.066 3.094v-.044a3.851 3.851 0 01-2.58.855 3.85 3.85 0 01-2.58-.855.314.314 0 01.039-.422.27.27 0 01.358 0 3.272 3.272 0 002.172.698 3.294 3.294 0 002.183-.676.282.282 0 01.413.006c.112.12.11.32-.005.438zm-.143-1.903h-.052l.008-.041c-.576 0-1.046-.5-1.046-1.111 0-.612.47-1.111 1.046-1.111.576 0 1.046.499 1.046 1.11.024.613-.425 1.128-1.002 1.153z" fill="#fff"/></g><defs><linearGradient id="paint0_linear_177_1865" x1="0" y1="0" x2="32.011" y2="31.989" gradientUnits="userSpaceOnUse"><stop stop-color="#fff" stop-opacity=".15"/><stop offset="1" stop-color="#fff" stop-opacity=".02"/></linearGradient><linearGradient id="paint1_linear_177_1865" x1="31.111" y1="32" x2="-1.391" y2="30.518" gradientUnits="userSpaceOnUse"><stop stop-color="#fff" stop-opacity=".2"/><stop offset="1" stop-color="#fff" stop-opacity=".1"/><stop offset="1" stop-color="#fff" stop-opacity=".05"/></linearGradient><filter id="filter0_b_177_1865" x="-8.21" y="-8.21" width="48.42" height="48.42" filterUnits="userSpaceOnUse" color-interpolation-filters="sRGB"><feFlood flood-opacity="0" result="BackgroundImageFix"/><feGaussianBlur in="BackgroundImageFix" stdDeviation="4.105"/><feComposite in2="SourceAlpha" operator="in" result="effect1_backgroundBlur_177_1865"/><feBlend in="SourceGraphic" in2="effect1_backgroundBlur_177_1865" result="shape"/></filter></defs></svg>