<svg width="32" height="32" fill="none" xmlns="http://www.w3.org/2000/svg"><g filter="url(#filter0_b_177_1867)"><rect width="32" height="32" rx="16" fill="url(#paint0_linear_177_1867)"/><rect x=".41" y=".41" width="31.179" height="31.179" rx="15.589" stroke="url(#paint1_linear_177_1867)" stroke-width=".821"/><path d="M23.024 10.905a.292.292 0 00-.2-.217 1.029 1.029 0 00-.54.038s-12.017 4.32-12.703 4.798c-.149.103-.198.163-.223.234-.118.34.251.49.251.49l3.098 1.01a.343.343 0 00.156-.01c.705-.445 7.09-4.477 7.459-4.612.058-.018.1 0 .091.043-.15.516-5.664 5.416-5.695 5.446a.118.118 0 00-.043.102l-.288 3.022s-.12.943.82 0a25.841 25.841 0 011.63-1.49c1.065.735 2.211 1.548 2.705 1.972a.86.86 0 00.628.242c.471-.018.6-.533.6-.533s2.19-8.811 2.263-9.992c.007-.116.017-.19.018-.27a.976.976 0 00-.027-.273z" fill="#fff"/></g><defs><linearGradient id="paint0_linear_177_1867" x1="0" y1="0" x2="32.011" y2="31.989" gradientUnits="userSpaceOnUse"><stop stop-color="#fff" stop-opacity=".15"/><stop offset="1" stop-color="#fff" stop-opacity=".02"/></linearGradient><linearGradient id="paint1_linear_177_1867" x1="31.111" y1="32" x2="-1.391" y2="30.518" gradientUnits="userSpaceOnUse"><stop stop-color="#fff" stop-opacity=".2"/><stop offset="1" stop-color="#fff" stop-opacity=".1"/><stop offset="1" stop-color="#fff" stop-opacity=".05"/></linearGradient><filter id="filter0_b_177_1867" x="-8.21" y="-8.21" width="48.42" height="48.42" filterUnits="userSpaceOnUse" color-interpolation-filters="sRGB"><feFlood flood-opacity="0" result="BackgroundImageFix"/><feGaussianBlur in="BackgroundImageFix" stdDeviation="4.105"/><feComposite in2="SourceAlpha" operator="in" result="effect1_backgroundBlur_177_1867"/><feBlend in="SourceGraphic" in2="effect1_backgroundBlur_177_1867" result="shape"/></filter></defs></svg>