<svg width="18" height="14" fill="none" xmlns="http://www.w3.org/2000/svg"><path fill-rule="evenodd" clip-rule="evenodd" d="M.113 4.16C.1 4.698.1 5.307.1 6v2c0 2.828 0 4.243.879 5.121C1.857 14 3.272 14 6.1 14h5.4c2.828 0 4.243 0 5.121-.879.879-.878.879-2.293.879-5.121V6c0-.694 0-1.303-.013-1.84l-7.69 4.42a2 2 0 01-1.994 0L.113 4.16zm.23-2.13a1 1 0 01.255.103L8.8 6.847l8.202-4.714a1 1 0 01.255-.103c-.13-.474-.33-.845-.636-1.151C15.743 0 14.328 0 11.5 0H6.1C3.272 0 1.857 0 .979.879c-.307.306-.506.677-.636 1.15z" fill="#fff"/></svg>