<svg width="560" height="465" fill="none" xmlns="http://www.w3.org/2000/svg"><path d="M279.651 436.794c118.015 0 213.685-95.67 213.685-213.685S397.666 9.424 279.651 9.424 65.966 105.094 65.966 223.109s95.67 213.685 213.685 213.685z" stroke="#fff" stroke-opacity=".2" stroke-width=".785" stroke-miterlimit="10"/><path d="M278.449 349.578c70.511 0 127.671-57.16 127.671-127.671 0-70.51-57.16-127.67-127.671-127.67-70.51 0-127.671 57.16-127.671 127.67 0 70.511 57.161 127.671 127.671 127.671zM441.796 84.053l45.369-45.37H560m-99.54 296.108l19.93 19.93h65.873m-203.947 71.516l26.144 38.271h73.906M86.498 128.993l-25.445-25.445H0" stroke="#fff" stroke-opacity=".2" stroke-width=".785" stroke-miterlimit="10"/><path d="M7.95 85.055l2.4-.203c.177 1.168.588 2.049 1.232 2.641.652.585 1.435.877 2.35.877 1.1 0 2.031-.415 2.793-1.245.763-.83 1.144-1.93 1.144-3.302 0-1.304-.369-2.333-1.105-3.086-.729-.754-1.685-1.13-2.87-1.13-.738 0-1.402.168-1.995.507a3.82 3.82 0 00-1.397 1.296l-2.146-.28 1.803-9.564h9.26v2.185h-7.431l-1.003 5.004c1.117-.779 2.29-1.168 3.518-1.168 1.626 0 2.997.563 4.115 1.689 1.118 1.126 1.677 2.574 1.677 4.344 0 1.685-.492 3.141-1.474 4.369-1.194 1.507-2.824 2.26-4.89 2.26-1.693 0-3.078-.474-4.153-1.422-1.067-.948-1.676-2.206-1.829-3.772zm14.478-4.306c0-2.201.225-3.97.674-5.309.457-1.346 1.13-2.383 2.019-3.111.898-.729 2.024-1.093 3.378-1.093 1 0 1.876.203 2.63.61.753.398 1.375.978 1.867 1.74.49.754.876 1.676 1.155 2.769.28 1.084.42 2.548.42 4.394 0 2.185-.225 3.95-.674 5.297-.448 1.337-1.122 2.375-2.02 3.111-.888.729-2.014 1.093-3.378 1.093-1.795 0-3.204-.644-4.229-1.93-1.228-1.55-1.842-4.074-1.842-7.57zm2.35 0c0 3.057.356 5.093 1.067 6.11.72 1.007 1.605 1.51 2.654 1.51 1.05 0 1.931-.507 2.642-1.523.72-1.016 1.08-3.049 1.08-6.097 0-3.065-.36-5.101-1.08-6.109-.711-1.008-1.6-1.511-2.667-1.511-1.05 0-1.888.444-2.515 1.333-.787 1.135-1.181 3.23-1.181 6.287zm12.561-4.966c0-1.33.335-2.46 1.004-3.391s1.638-1.397 2.908-1.397c1.169 0 2.134.419 2.896 1.257.77.83 1.156 2.054 1.156 3.67 0 1.576-.39 2.79-1.169 3.646-.77.847-1.723 1.27-2.857 1.27-1.127 0-2.066-.419-2.82-1.257-.745-.838-1.118-2.104-1.118-3.798zm3.976-3.213c-.567 0-1.042.245-1.423.736-.372.492-.559 1.393-.559 2.706 0 1.194.19 2.036.572 2.527.381.483.85.724 1.41.724.576 0 1.05-.245 1.422-.736.381-.492.572-1.39.572-2.693 0-1.202-.19-2.045-.572-2.528-.38-.49-.855-.736-1.422-.736zm.013 18.048l10.186-19.623h1.854L43.22 90.618h-1.892zm8.052-5.055c0-1.338.334-2.468 1.003-3.391.67-.932 1.643-1.397 2.922-1.397 1.168 0 2.133.419 2.895 1.257.77.83 1.156 2.053 1.156 3.67 0 1.576-.39 2.79-1.168 3.646-.77.847-1.728 1.27-2.87 1.27-1.127 0-2.067-.42-2.82-1.257-.745-.847-1.118-2.113-1.118-3.798zm3.988-3.213c-.576 0-1.054.245-1.435.736-.373.491-.559 1.393-.559 2.706 0 1.185.19 2.023.572 2.514.38.492.85.737 1.41.737.584 0 1.062-.246 1.435-.737.38-.49.571-1.388.571-2.692 0-1.203-.19-2.045-.571-2.528-.381-.49-.856-.736-1.423-.736zm458.046-60.547V24h-12.307c-.017-.55.072-1.08.267-1.588.313-.838.813-1.663 1.498-2.476.695-.813 1.694-1.753 2.998-2.82 2.024-1.66 3.391-2.972 4.102-3.937.712-.974 1.067-1.893 1.067-2.756 0-.906-.326-1.668-.978-2.287-.643-.626-1.486-.94-2.527-.94-1.101 0-1.982.33-2.642.991-.661.66-.995 1.575-1.004 2.744l-2.349-.242c.161-1.752.766-3.086 1.816-4 1.05-.923 2.46-1.385 4.229-1.385 1.787 0 3.201.495 4.243 1.486 1.041.99 1.562 2.219 1.562 3.683 0 .745-.153 1.478-.457 2.198-.305.72-.813 1.477-1.525 2.273-.702.796-1.875 1.888-3.518 3.277-1.371 1.152-2.252 1.935-2.642 2.35a7.331 7.331 0 00-.965 1.232h9.132zm2.464-2.68l2.401-.203c.178 1.168.588 2.049 1.232 2.641.652.585 1.435.877 2.349.877 1.101 0 2.033-.415 2.795-1.245.762-.83 1.143-1.93 1.143-3.302 0-1.304-.369-2.333-1.105-3.087-.728-.753-1.685-1.13-2.871-1.13a3.95 3.95 0 00-1.994.508 3.827 3.827 0 00-1.397 1.296l-2.146-.28 1.803-9.564h9.259V7.82h-7.43l-1.003 5.004c1.117-.779 2.29-1.168 3.518-1.168 1.626 0 2.997.563 4.115 1.689 1.118 1.126 1.677 2.574 1.677 4.344 0 1.685-.491 3.141-1.474 4.369-1.194 1.507-2.824 2.26-4.89 2.26-1.693 0-3.077-.474-4.153-1.422-1.067-.948-1.676-2.206-1.829-3.772zm14.911-9.272c0-1.33.335-2.46 1.004-3.391.669-.932 1.638-1.397 2.908-1.397 1.169 0 2.134.419 2.896 1.257.771.83 1.156 2.053 1.156 3.67 0 1.576-.39 2.79-1.169 3.646-.77.847-1.723 1.27-2.857 1.27-1.127 0-2.066-.42-2.82-1.257-.745-.839-1.118-2.104-1.118-3.798zm3.976-3.213c-.568 0-1.042.245-1.423.736-.372.491-.559 1.393-.559 2.706 0 1.194.191 2.036.572 2.527.381.483.851.724 1.41.724.576 0 1.05-.245 1.422-.736.381-.492.572-1.39.572-2.693 0-1.203-.191-2.045-.572-2.528-.381-.49-.855-.736-1.422-.736zm.012 18.048l10.187-19.623h1.854L534.67 24.686h-1.893zm8.053-5.055c0-1.338.334-2.468 1.003-3.391.669-.932 1.643-1.397 2.922-1.397 1.168 0 2.133.419 2.895 1.257.771.83 1.156 2.053 1.156 3.67 0 1.576-.389 2.79-1.168 3.646-.771.846-1.728 1.27-2.871 1.27-1.126 0-2.066-.42-2.819-1.258-.746-.846-1.118-2.112-1.118-3.797zm3.988-3.213c-.576 0-1.054.245-1.435.736-.373.491-.559 1.393-.559 2.706 0 1.185.19 2.023.572 2.514.381.491.85.737 1.409.737.585 0 1.063-.246 1.436-.737.381-.49.571-1.388.571-2.692 0-1.203-.19-2.045-.571-2.528-.381-.491-.856-.736-1.423-.736zm-46.259 325.224h-2.286v-14.569c-.551.525-1.275 1.05-2.172 1.575-.889.525-1.689.919-2.401 1.182v-2.21c1.279-.602 2.397-1.33 3.354-2.185.956-.855 1.634-1.685 2.032-2.489h1.473v18.696zm9.386-10.098c-.948-.347-1.651-.842-2.108-1.486-.458-.643-.686-1.414-.686-2.311 0-1.355.487-2.494 1.46-3.417.974-.923 2.27-1.384 3.887-1.384 1.626 0 2.934.474 3.925 1.422.99.94 1.486 2.087 1.486 3.442 0 .864-.229 1.617-.686 2.261-.449.635-1.135 1.126-2.058 1.473 1.143.373 2.011.974 2.604 1.804.601.83.902 1.82.902 2.972 0 1.592-.563 2.93-1.69 4.013-1.126 1.084-2.607 1.626-4.445 1.626-1.837 0-3.319-.542-4.445-1.626-1.126-1.092-1.69-2.451-1.69-4.077 0-1.21.305-2.222.915-3.035.618-.822 1.494-1.38 2.629-1.677zm-.457-3.874c0 .881.284 1.601.851 2.16.567.558 1.304.838 2.21.838.88 0 1.6-.275 2.159-.826.567-.559.851-1.24.851-2.045 0-.838-.292-1.541-.876-2.108-.576-.576-1.296-.864-2.16-.864-.872 0-1.596.28-2.171.839-.576.559-.864 1.227-.864 2.006zm-.737 8.599c0 .652.153 1.283.457 1.893a3.355 3.355 0 001.385 1.422 4.07 4.07 0 001.969.495c1.092 0 1.994-.351 2.705-1.054.711-.703 1.067-1.596 1.067-2.68 0-1.1-.369-2.011-1.105-2.73-.728-.72-1.643-1.08-2.744-1.08-1.075 0-1.968.356-2.68 1.067-.702.711-1.054 1.6-1.054 2.667zm12.587-8.776c0-1.33.334-2.46 1.003-3.392.669-.931 1.639-1.397 2.909-1.397 1.168 0 2.134.419 2.896 1.258.77.83 1.156 2.053 1.156 3.67 0 1.575-.39 2.79-1.169 3.646-.771.846-1.723 1.27-2.858 1.27-1.126 0-2.066-.419-2.819-1.258-.745-.838-1.118-2.104-1.118-3.797zm3.975-3.214c-.567 0-1.041.246-1.422.737-.373.491-.559 1.393-.559 2.705 0 1.194.191 2.037.572 2.528.381.482.851.724 1.409.724.576 0 1.05-.246 1.423-.737.381-.491.571-1.389.571-2.693 0-1.202-.19-2.044-.571-2.527-.381-.491-.855-.737-1.423-.737zm.013 18.048l10.186-19.623h1.855l-10.148 19.623h-1.893zm8.053-5.055c0-1.337.334-2.468 1.003-3.391.669-.931 1.643-1.397 2.921-1.397 1.169 0 2.134.419 2.896 1.258.771.829 1.156 2.053 1.156 3.67 0 1.575-.39 2.79-1.169 3.645-.77.847-1.727 1.27-2.87 1.27-1.126 0-2.066-.419-2.82-1.257-.745-.847-1.117-2.113-1.117-3.798zm3.988-3.213c-.576 0-1.055.246-1.436.737-.372.491-.558 1.393-.558 2.705 0 1.185.19 2.024.571 2.515.381.491.851.737 1.41.737.584 0 1.063-.246 1.435-.737.381-.491.572-1.389.572-2.693 0-1.202-.191-2.045-.572-2.527-.381-.491-.855-.737-1.422-.737zM387.162 451.964h-2.286v-14.568c-.55.525-1.274 1.05-2.172 1.575-.889.525-1.689.919-2.4 1.181v-2.21c1.278-.601 2.396-1.329 3.353-2.184.957-.855 1.634-1.685 2.032-2.49h1.473v18.696zm5.868-9.183c0-2.201.225-3.971.674-5.309.457-1.346 1.13-2.383 2.019-3.111.898-.729 2.024-1.093 3.378-1.093 1 0 1.876.204 2.63.61.753.398 1.376.978 1.867 1.74.491.754.876 1.677 1.155 2.769.28 1.084.42 2.549.42 4.394 0 2.185-.225 3.951-.674 5.297-.448 1.338-1.122 2.375-2.019 3.112-.889.728-2.015 1.092-3.379 1.092-1.795 0-3.204-.644-4.229-1.931-1.228-1.549-1.842-4.072-1.842-7.57zm2.35 0c0 3.057.356 5.094 1.067 6.11.72 1.007 1.605 1.511 2.654 1.511 1.05 0 1.931-.508 2.642-1.524.72-1.016 1.08-3.048 1.08-6.097 0-3.065-.36-5.101-1.08-6.109-.711-1.007-1.6-1.511-2.667-1.511-1.05 0-1.888.444-2.515 1.333-.787 1.135-1.181 3.231-1.181 6.287zm12.561-4.966c0-1.329.335-2.459 1.004-3.391.669-.931 1.638-1.397 2.908-1.397 1.169 0 2.134.419 2.896 1.257.771.83 1.156 2.054 1.156 3.671 0 1.575-.39 2.79-1.169 3.645-.77.847-1.723 1.27-2.857 1.27-1.126 0-2.066-.419-2.82-1.257-.745-.838-1.118-2.104-1.118-3.798zm3.976-3.213c-.567 0-1.042.246-1.423.737-.372.491-.559 1.393-.559 2.705 0 1.194.191 2.036.572 2.528.381.482.851.723 1.41.723.576 0 1.05-.245 1.422-.736.381-.491.572-1.389.572-2.693 0-1.202-.191-2.045-.572-2.527-.381-.491-.855-.737-1.422-.737zm.013 18.048l10.186-19.623h1.854l-10.148 19.623h-1.892zm8.052-5.055c0-1.338.334-2.468 1.003-3.391.669-.931 1.643-1.397 2.922-1.397 1.168 0 2.133.419 2.895 1.257.771.83 1.156 2.054 1.156 3.671 0 1.575-.389 2.79-1.168 3.645-.771.847-1.728 1.27-2.871 1.27-1.126 0-2.066-.419-2.819-1.257-.745-.847-1.118-2.113-1.118-3.798zm3.988-3.213c-.576 0-1.054.245-1.435.736-.373.492-.559 1.393-.559 2.706 0 1.185.191 2.024.572 2.515.381.491.851.736 1.409.736.585 0 1.063-.245 1.436-.736.381-.491.571-1.389.571-2.693 0-1.202-.19-2.045-.571-2.528-.381-.491-.856-.736-1.423-.736z" fill="#fff"/><path d="M477.465 223.027c0 109.295-88.602 197.896-197.897 197.896-109.295 0-197.896-88.601-197.896-197.896 0-109.296 88.601-197.897 197.896-197.897 109.295 0 197.897 88.601 197.897 197.897zm-342.361 0c0 79.785 64.679 144.464 144.464 144.464 79.786 0 144.465-64.679 144.465-144.464 0-79.786-64.679-144.465-144.465-144.465-79.785 0-144.464 64.679-144.464 144.465z" fill="#A9FFDF"/><path d="M279.568 420.923A197.894 197.894 0 0184.272 255.002a197.898 197.898 0 11314.926 125.669l-32.3-42.564a144.465 144.465 0 10-87.33 29.384v53.432z" fill="#6CF3C0"/><path d="M279.568 420.923a197.897 197.897 0 11197.897-197.896h-53.432a144.462 144.462 0 00-89.181-133.468 144.464 144.464 0 10-55.284 277.932v53.432z" fill="#31C58E"/><path d="M279.568 420.923a197.897 197.897 0 010-395.793v53.432a144.466 144.466 0 00-144.464 144.465 144.463 144.463 0 00144.464 144.464v53.432z" fill="#1D8D63"/></svg>