<svg width="1920" height="1080" fill="none" xmlns="http://www.w3.org/2000/svg"><g clip-path="url(#clip0_879_2129)" stroke="#fff" stroke-opacity=".09"><path d="M-72.5-40.5h129v129h-129zm129 0h129v129h-129zm129 0h129v129h-129zm129 0h129v129h-129zm129 0h129v129h-129zm129 0h129v129h-129zm129 0h129v129h-129zm129 0h129v129h-129zm129 0h129v129h-129zm129 0h129v129h-129zm129 0h129v129h-129zm129 0h129v129h-129zm129 0h129v129h-129zm129 0h129v129h-129zm129 0h129v129h-129zm129 0h129v129h-129zm-1935 129h129v129h-129zm129 0h129v129h-129zm129 0h129v129h-129zm129 0h129v129h-129zm129 0h129v129h-129zm129 0h129v129h-129zm129 0h129v129h-129zm129 0h129v129h-129zm129 0h129v129h-129zm129 0h129v129h-129zm129 0h129v129h-129zm129 0h129v129h-129zm129 0h129v129h-129zm129 0h129v129h-129zm129 0h129v129h-129zm129 0h129v129h-129zm-1935 129h129v129h-129zm129 0h129v129h-129zm129 0h129v129h-129zm129 0h129v129h-129zm129 0h129v129h-129zm129 0h129v129h-129zm129 0h129v129h-129zm129 0h129v129h-129zm129 0h129v129h-129zm129 0h129v129h-129zm129 0h129v129h-129zm129 0h129v129h-129zm129 0h129v129h-129zm129 0h129v129h-129zm129 0h129v129h-129zm129 0h129v129h-129zm-1935 129h129v129h-129zm129 0h129v129h-129zm129 0h129v129h-129zm129 0h129v129h-129zm129 0h129v129h-129zm129 0h129v129h-129zm129 0h129v129h-129zm129 0h129v129h-129zm129 0h129v129h-129zm129 0h129v129h-129zm129 0h129v129h-129zm129 0h129v129h-129zm129 0h129v129h-129zm129 0h129v129h-129zm129 0h129v129h-129zm129 0h129v129h-129zm-1935 129h129v129h-129zm129 0h129v129h-129zm129 0h129v129h-129zm129 0h129v129h-129zm129 0h129v129h-129zm129 0h129v129h-129zm129 0h129v129h-129zm129 0h129v129h-129zm129 0h129v129h-129zm129 0h129v129h-129zm129 0h129v129h-129zm129 0h129v129h-129zm129 0h129v129h-129zm129 0h129v129h-129zm129 0h129v129h-129zm129 0h129v129h-129zm-1935 129h129v129h-129zm129 0h129v129h-129zm129 0h129v129h-129zm129 0h129v129h-129zm129 0h129v129h-129zm129 0h129v129h-129zm129 0h129v129h-129zm129 0h129v129h-129zm129 0h129v129h-129zm129 0h129v129h-129zm129 0h129v129h-129zm129 0h129v129h-129zm129 0h129v129h-129zm129 0h129v129h-129zm129 0h129v129h-129zm129 0h129v129h-129zm-1935 129h129v129h-129zm129 0h129v129h-129zm129 0h129v129h-129zm129 0h129v129h-129zm129 0h129v129h-129zm129 0h129v129h-129zm129 0h129v129h-129zm129 0h129v129h-129zm129 0h129v129h-129zm129 0h129v129h-129zm129 0h129v129h-129zm129 0h129v129h-129zm129 0h129v129h-129zm129 0h129v129h-129zm129 0h129v129h-129zm129 0h129v129h-129zm-1935 129h129v129h-129zm129 0h129v129h-129zm129 0h129v129h-129zm129 0h129v129h-129zm129 0h129v129h-129zm129 0h129v129h-129zm129 0h129v129h-129zm129 0h129v129h-129zm129 0h129v129h-129zm129 0h129v129h-129zm129 0h129v129h-129zm129 0h129v129h-129zm129 0h129v129h-129zm129 0h129v129h-129zm129 0h129v129h-129zm129 0h129v129h-129zm-1935 129h129v129h-129zm129 0h129v129h-129zm129 0h129v129h-129zm129 0h129v129h-129zm129 0h129v129h-129zm129 0h129v129h-129zm129 0h129v129h-129zm129 0h129v129h-129zm129 0h129v129h-129zm129 0h129v129h-129zm129 0h129v129h-129zm129 0h129v129h-129zm129 0h129v129h-129zm129 0h129v129h-129zm129 0h129v129h-129zm129 0h129v129h-129z"/></g><defs><clipPath id="clip0_879_2129"><path fill="#fff" d="M0 0h1920v1080H0z"/></clipPath></defs></svg>